<svg xmlns="http://www.w3.org/2000/svg" width="256" height="256" fill="none" viewBox="0 0 256 256"><rect width="225" height="225" x="16" y="16" fill="#9FD48C" rx="10"/><rect width="220" height="220" x="18.5" y="18.5" stroke="#000" stroke-opacity=".2" stroke-width="5" rx="7.5"/><g filter="url(#filter0_d_39_2)"><path fill="#000" d="M67.4256 167V95.96H119.458V110.552H85.6176V152.408H119.938V167H67.4256ZM78.2256 138.008V123.416H114.514V138.008H78.2256ZM176.424 167L167.16 152.792L156.648 140.456L138.84 114.344H158.616L167.544 127.832L177.816 140.264L196.152 167H176.424ZM138.504 167L156.648 140.456L167.544 127.832L176.328 114.344H195.528L177.816 140.264L167.16 152.792L157.704 167H138.504Z"/></g><path fill="#000" fill-opacity=".2" fill-rule="evenodd" d="M32 27H27V52H32V32H52V27H32Z" clip-rule="evenodd"/><path fill="#000" fill-opacity=".2" fill-rule="evenodd" d="M225 230H230V205H225V225H205V230H225Z" clip-rule="evenodd"/><defs><filter id="filter0_d_39_2" width="136.726" height="79.04" x="63.426" y="95.96" color-interpolation-filters="sRGB" filterUnits="userSpaceOnUse"><feFlood flood-opacity="0" result="BackgroundImageFix"/><feColorMatrix in="SourceAlpha" result="hardAlpha" type="matrix" values="0 0 0 0 0 0 0 0 0 0 0 0 0 0 0 0 0 0 127 0"/><feOffset dy="4"/><feGaussianBlur stdDeviation="2"/><feComposite in2="hardAlpha" operator="out"/><feColorMatrix type="matrix" values="0 0 0 0 0 0 0 0 0 0 0 0 0 0 0 0 0 0 0.25 0"/><feBlend in2="BackgroundImageFix" mode="normal" result="effect1_dropShadow_39_2"/><feBlend in="SourceGraphic" in2="effect1_dropShadow_39_2" mode="normal" result="shape"/></filter></defs></svg>