<svg width="256" height="256" viewBox="0 0 256 256" fill="none" xmlns="http://www.w3.org/2000/svg">
<rect x="16" y="16" width="225" height="225" rx="10" fill="#9FD48C"/>
<rect x="18.5" y="18.5" width="220" height="220" rx="7.5" stroke="black" stroke-opacity="0.2" stroke-width="5"/>
<g filter="url(#filter0_d_39_2)">
<path d="M67.4256 167V95.96H119.458V110.552H85.6176V152.408H119.938V167H67.4256ZM78.2256 138.008V123.416H114.514V138.008H78.2256ZM176.424 167L167.16 152.792L156.648 140.456L138.84 114.344H158.616L167.544 127.832L177.816 140.264L196.152 167H176.424ZM138.504 167L156.648 140.456L167.544 127.832L176.328 114.344H195.528L177.816 140.264L167.16 152.792L157.704 167H138.504Z" fill="black"/>
</g>
<path fill-rule="evenodd" clip-rule="evenodd" d="M32 27H27V52H32V32H52V27H32Z" fill="black" fill-opacity="0.2"/>
<path fill-rule="evenodd" clip-rule="evenodd" d="M225 230H230V205H225V225H205V230H225Z" fill="black" fill-opacity="0.2"/>
<defs>
<filter id="filter0_d_39_2" x="63.4257" y="95.96" width="136.726" height="79.04" filterUnits="userSpaceOnUse" color-interpolation-filters="sRGB">
<feFlood flood-opacity="0" result="BackgroundImageFix"/>
<feColorMatrix in="SourceAlpha" type="matrix" values="0 0 0 0 0 0 0 0 0 0 0 0 0 0 0 0 0 0 127 0" result="hardAlpha"/>
<feOffset dy="4"/>
<feGaussianBlur stdDeviation="2"/>
<feComposite in2="hardAlpha" operator="out"/>
<feColorMatrix type="matrix" values="0 0 0 0 0 0 0 0 0 0 0 0 0 0 0 0 0 0 0.25 0"/>
<feBlend mode="normal" in2="BackgroundImageFix" result="effect1_dropShadow_39_2"/>
<feBlend mode="normal" in="SourceGraphic" in2="effect1_dropShadow_39_2" result="shape"/>
</filter>
</defs>
</svg>
