<svg xmlns="http://www.w3.org/2000/svg" width="580" height="256" fill="none" viewBox="0 0 580 256"><g clip-path="url(#clip0_27_39)"><rect width="580" height="256" fill="#fff"/><rect width="768" height="256" fill="#EF4444"/><rect width="536" height="212" x="22" y="22" fill="#000"/><path fill="#EF4444" d="M105.462 167V95.96H155.334V108.44H120.87V154.52H155.814V167H105.462ZM114.726 136.904V124.424H150.438V136.904H114.726ZM178.911 167L160.143 95.96H175.935L191.967 160.136H188.079L205.215 95.96H222.447L239.007 160.136H235.407L251.823 95.96H266.607L247.839 167H227.823L211.647 105.464H215.775L198.927 167H178.911ZM291.222 167.912C287.798 167.912 284.358 167.64 280.902 167.096C277.478 166.584 274.31 165.848 271.398 164.888V152.216C273.414 152.888 275.558 153.464 277.83 153.944C280.102 154.392 282.374 154.744 284.646 155C286.95 155.256 289.126 155.384 291.174 155.384C295.942 155.384 299.318 154.664 301.302 153.224C303.286 151.752 304.278 149.704 304.278 147.08C304.278 144.872 303.542 143.144 302.07 141.896C300.63 140.648 297.926 139.512 293.958 138.488L288.582 137.096C282.374 135.528 277.67 133.096 274.47 129.8C271.302 126.472 269.718 122.088 269.718 116.648C269.718 109.864 272.166 104.568 277.062 100.76C281.99 96.952 289.398 95.048 299.286 95.048C302.486 95.048 305.526 95.24 308.406 95.624C311.318 95.976 313.894 96.472 316.134 97.112V109.784C313.862 109.08 311.334 108.536 308.55 108.152C305.766 107.768 302.966 107.576 300.15 107.576C296.438 107.576 293.494 107.928 291.318 108.632C289.142 109.304 287.574 110.264 286.614 111.512C285.686 112.76 285.222 114.2 285.222 115.832C285.222 117.912 285.862 119.544 287.142 120.728C288.422 121.912 290.822 122.984 294.342 123.944L299.67 125.336C304.278 126.456 308.07 127.944 311.046 129.8C314.022 131.624 316.214 133.88 317.622 136.568C319.062 139.224 319.782 142.376 319.782 146.024C319.782 150.568 318.646 154.488 316.374 157.784C314.134 161.048 310.886 163.56 306.63 165.32C302.374 167.048 297.238 167.912 291.222 167.912ZM366.983 167.816C357.991 167.816 350.487 166.52 344.471 163.928C338.455 161.304 333.943 157.32 330.935 151.976C327.927 146.632 326.423 139.848 326.423 131.624C326.423 123.464 327.975 116.68 331.079 111.272C334.183 105.864 338.727 101.816 344.711 99.128C350.695 96.408 358.023 95.048 366.695 95.048C369.479 95.048 372.199 95.192 374.855 95.48C377.543 95.768 380.167 96.216 382.727 96.824V109.688C380.231 109.08 377.767 108.632 375.335 108.344C372.935 108.056 370.519 107.912 368.087 107.912C362.295 107.912 357.527 108.712 353.783 110.312C350.039 111.912 347.239 114.472 345.383 117.992C343.559 121.48 342.647 126.104 342.647 131.864C342.647 137.24 343.495 141.64 345.191 145.064C346.919 148.456 349.495 150.968 352.919 152.6C356.343 154.2 360.631 155 365.783 155C367.735 155 369.671 154.936 371.591 154.808C373.511 154.648 375.271 154.44 376.871 154.184L370.199 159.992V132.44H384.743V166.232C381.671 166.744 378.663 167.128 375.719 167.384C372.807 167.672 369.895 167.816 366.983 167.816ZM397.212 167V95.96H412.812V167H397.212ZM442.274 167V108.92H419.858V95.96H480.29V108.92H457.922V167H442.274Z"/></g><defs><clipPath id="clip0_27_39"><rect width="580" height="256" fill="#fff"/></clipPath></defs></svg>